<svg width="32" height="32" viewBox="0 0 26 26" fill="none" xmlns="http://www.w3.org/2000/svg"><path d="M12.2752 2.2285C12.6529 1.48818 13.7108 1.48818 14.0885 2.2285L16.735 7.41481C16.8829 7.70466 17.1604 7.90633 17.4818 7.95743L23.2321 8.87169C24.0529 9.0022 24.3798 10.0082 23.7924 10.5963L19.6778 14.7159C19.4478 14.9461 19.3418 15.2724 19.3925 15.5938L20.2999 21.3452C20.4294 22.1662 19.5736 22.7879 18.8329 22.4111L13.6434 19.7708C13.3534 19.6232 13.0103 19.6232 12.7203 19.7708L7.53081 22.4111C6.79004 22.7879 5.93424 22.1662 6.06377 21.3452L6.97119 15.5938C7.0219 15.2724 6.91588 14.9461 6.68592 14.7159L2.57124 10.5963C1.98389 10.0082 2.31077 9.0022 3.1316 8.87169L8.88187 7.95743C9.20324 7.90633 9.48081 7.70466 9.62872 7.41481L12.2752 2.2285Z" fill="#C22A20"></path><path d="M12.2752 2.2285C12.6529 1.48818 13.7108 1.48818 14.0885 2.2285L16.735 7.41481C16.8829 7.70466 17.1604 7.90633 17.4818 7.95743L23.2321 8.87169C24.0529 9.0022 24.3798 10.0082 23.7924 10.5963L19.6778 14.7159C19.4478 14.9461 19.3418 15.2724 19.3925 15.5938L20.2999 21.3452C20.4294 22.1662 19.5736 22.7879 18.8329 22.4111L13.6434 19.7708C13.3534 19.6232 13.0103 19.6232 12.7203 19.7708L7.53081 22.4111C6.79004 22.7879 5.93424 22.1662 6.06377 21.3452L6.97119 15.5938C7.0219 15.2724 6.91588 14.9461 6.68592 14.7159L2.57124 10.5963C1.98389 10.0082 2.31077 9.0022 3.1316 8.87169L8.88187 7.95743C9.20324 7.90633 9.48081 7.70466 9.62872 7.41481L12.2752 2.2285Z" fill="url(#paint0_linear_448_8887status)"></path><path d="M12.2754 2.22809C12.6531 1.48777 13.711 1.48777 14.0887 2.22809L16.7352 7.4144C16.8831 7.70426 17.1607 7.90592 17.482 7.95702L23.2323 8.87128C24.0531 9.00179 24.38 10.0078 23.7927 10.5959L19.678 14.7155C19.448 14.9457 19.342 15.272 19.3927 15.5934L20.3001 21.3448C20.4297 22.1658 19.5739 22.7875 18.8331 22.4107L13.6436 19.7704C13.3536 19.6228 13.0105 19.6228 12.7205 19.7704L7.53102 22.4107C6.79025 22.7875 5.93445 22.1658 6.06398 21.3448L6.9714 15.5934C7.02211 15.272 6.91609 14.9457 6.68613 14.7155L2.57145 10.5959C1.9841 10.0078 2.31098 9.00179 3.13181 8.87128L8.88208 7.95702C9.20345 7.90592 9.48102 7.70426 9.62893 7.4144L12.2754 2.22809Z" fill="url(#paint1_linear_448_8887status)"></path><path d="M12.2754 2.22809C12.6531 1.48777 13.711 1.48777 14.0887 2.22809L16.7352 7.4144C16.8831 7.70426 17.1607 7.90592 17.482 7.95702L23.2323 8.87128C24.0531 9.00179 24.38 10.0078 23.7927 10.5959L19.678 14.7155C19.448 14.9457 19.342 15.272 19.3927 15.5934L20.3001 21.3448C20.4297 22.1658 19.5739 22.7875 18.8331 22.4107L13.6436 19.7704C13.3536 19.6228 13.0105 19.6228 12.7205 19.7704L7.53102 22.4107C6.79025 22.7875 5.93445 22.1658 6.06398 21.3448L6.9714 15.5934C7.02211 15.272 6.91609 14.9457 6.68613 14.7155L2.57145 10.5959C1.9841 10.0078 2.31098 9.00179 3.13181 8.87128L8.88208 7.95702C9.20345 7.90592 9.48102 7.70426 9.62893 7.4144L12.2754 2.22809Z" fill="url(#paint2_radial_448_8887status)"></path><path fill-rule="evenodd" clip-rule="evenodd" d="M16.433 7.56862L13.7865 2.38231C13.5347 1.88876 12.8294 1.88876 12.5776 2.38231L9.93115 7.56862C9.73395 7.95509 9.36385 8.22398 8.93536 8.29211L3.18509 9.20637C2.63787 9.29338 2.41995 9.96407 2.81151 10.3561L6.92619 14.4757C7.23281 14.7827 7.37417 15.2177 7.30655 15.6463L6.39914 21.3977C6.31278 21.945 6.88331 22.3595 7.37716 22.1082L12.5666 19.468C12.9533 19.2712 13.4108 19.2712 13.7975 19.468L18.9869 22.1082C19.4808 22.3595 20.0513 21.945 19.965 21.3977L19.0576 15.6463C18.9899 15.2177 19.1313 14.7827 19.4379 14.4757L23.5526 10.3561C23.9442 9.96407 23.7262 9.29338 23.179 9.20637L17.4287 8.29211C17.0003 8.22398 16.6302 7.95509 16.433 7.56862ZM14.0887 2.22809C13.711 1.48777 12.6531 1.48777 12.2754 2.22809L9.62893 7.4144C9.48102 7.70426 9.20345 7.90592 8.88208 7.95702L3.13181 8.87128C2.31098 9.00179 1.9841 10.0078 2.57145 10.5959L6.68613 14.7155C6.91609 14.9457 7.02211 15.272 6.9714 15.5934L6.06398 21.3448C5.93445 22.1658 6.79025 22.7875 7.53102 22.4107L12.7205 19.7704C13.0105 19.6228 13.3536 19.6228 13.6436 19.7704L18.8331 22.4107C19.5739 22.7875 20.4297 22.1658 20.3001 21.3448L19.3927 15.5934C19.342 15.272 19.448 14.9457 19.678 14.7155L23.7927 10.5959C24.38 10.0078 24.0531 9.00179 23.2323 8.87128L17.482 7.95702C17.1607 7.90592 16.8831 7.70426 16.7352 7.4144L14.0887 2.22809Z" fill="url(#paint3_linear_448_8887status)"></path><path d="M12.741 7.3195C12.937 6.98075 13.4261 6.98075 13.6221 7.3195L15.1721 9.99846C15.2442 10.123 15.3656 10.2113 15.5063 10.2413L18.5331 10.8876C18.9159 10.9693 19.067 11.4344 18.8054 11.7255L16.7365 14.0275C16.6403 14.1345 16.594 14.2773 16.6089 14.4204L16.9296 17.4988C16.9701 17.8881 16.5745 18.1755 16.2168 18.0167L13.3882 16.7604C13.2566 16.702 13.1065 16.702 12.975 16.7604L10.1464 18.0167C9.7887 18.1755 9.39305 17.8881 9.4336 17.4988L9.75428 14.4204C9.7692 14.2773 9.72281 14.1345 9.62661 14.0275L7.55775 11.7255C7.29613 11.4344 7.44726 10.9693 7.83001 10.8876L10.8568 10.2413C10.9976 10.2113 11.119 10.123 11.1911 9.99846L12.741 7.3195Z" fill="url(#paint4_linear_448_8887status)"></path><path d="M19.6431 11.3076C13.5027 17.1102 8.01855 14.5437 6.04404 12.5351C3.04056 8.07161 9.63153 11.6424 15.4716 10.0802C20.1437 8.83037 20.1993 10.3777 19.6431 11.3076Z" fill="url(#paint5_linear_448_8887status)"></path><path fill-rule="evenodd" clip-rule="evenodd" d="M12.486 3.38311C12.6114 3.44656 12.6616 3.59966 12.5981 3.72506L11.8786 5.14712C11.8152 5.27252 11.6621 5.32275 11.5367 5.2593C11.4113 5.19585 11.3611 5.04275 11.4245 4.91735L12.144 3.49529C12.2075 3.36989 12.3606 3.31966 12.486 3.38311Z" fill="#F9BE76"></path><circle cx="3.68131" cy="9.52742" r="0.254474" fill="#F9BE76"></circle><circle cx="11.3155" cy="5.62557" r="0.254474" fill="#F9BE76"></circle><path d="M10.7514 8.25268C8.82111 10.9869 9.51093 12.4755 10.0971 12.8781C11.8774 13.6816 15.1214 8.94033 15.3409 7.68564C15.5604 6.43095 13.1642 4.83492 10.7514 8.25268Z" fill="url(#paint6_linear_448_8887status)" fill-opacity="0.6"></path><defs><linearGradient id="paint0_linear_448_8887status" x1="13.1818" y1="0.45166" x2="18.8651" y2="22.4213" gradientUnits="userSpaceOnUse"><stop stop-color="#FBA416" stop-opacity="0"></stop><stop offset="1" stop-color="#FDBB4E" stop-opacity="0.63"></stop></linearGradient><linearGradient id="paint1_linear_448_8887status" x1="13.182" y1="0.451259" x2="18.8653" y2="22.4209" gradientUnits="userSpaceOnUse"><stop stop-color="#FDBB4E" stop-opacity="0"></stop><stop offset="1" stop-color="#FDBB4E" stop-opacity="0.63"></stop></linearGradient><radialGradient id="paint2_radial_448_8887status" cx="0" cy="0" r="1" gradientUnits="userSpaceOnUse" gradientTransform="translate(10.2132 9.86681) rotate(52.6712) scale(14.8278)"><stop offset="0.738765" stop-color="#9CB6DD" stop-opacity="0"></stop><stop offset="0.89825" stop-color="#C6F1FF" stop-opacity="0.37"></stop><stop offset="1" stop-color="#EFFBFF" stop-opacity="0.7"></stop></radialGradient><linearGradient id="paint3_linear_448_8887status" x1="20.3073" y1="17.4162" x2="8.6015" y2="6.81312" gradientUnits="userSpaceOnUse"><stop stop-color="#FEFFD3" stop-opacity="0.63"></stop><stop offset="0.218803" stop-color="#FAFD4E" stop-opacity="0"></stop><stop offset="0.491108" stop-color="#FDFF8B" stop-opacity="0.56"></stop><stop offset="0.733041" stop-color="#F7F990"></stop><stop offset="1" stop-color="white" stop-opacity="0"></stop><stop offset="1" stop-color="#FEFFB7" stop-opacity="0"></stop></linearGradient><linearGradient id="paint4_linear_448_8887status" x1="13.1816" y1="6.55811" x2="13.0119" y2="17.8398" gradientUnits="userSpaceOnUse"><stop stop-color="#FEFFB0"></stop><stop offset="0.277442" stop-color="white" stop-opacity="0.51"></stop><stop offset="1" stop-color="#FAFD4E" stop-opacity="0.15"></stop></linearGradient><linearGradient id="paint5_linear_448_8887status" x1="12.635" y1="10.8612" x2="12.551" y2="14.8707" gradientUnits="userSpaceOnUse"><stop stop-color="#FAFD4E" stop-opacity="0"></stop><stop offset="0.731853" stop-color="#FAFD4E" stop-opacity="0.46"></stop></linearGradient><linearGradient id="paint6_linear_448_8887status" x1="11.5105" y1="8.61842" x2="13.7636" y2="10.7449" gradientUnits="userSpaceOnUse"><stop offset="0.223958" stop-color="#FAFD4E" stop-opacity="0.35"></stop><stop offset="1" stop-color="#FAFD4E" stop-opacity="0"></stop></linearGradient></defs></svg>