<svg width="24" height="24" viewBox="0 0 24 24" fill="none" xmlns="http://www.w3.org/2000/svg"><g clip-path="url(#clip0_788_63415)"><path d="M12.0474 23.9014C18.4847 23.9014 23.7031 18.6829 23.7031 12.2456C23.7031 5.80831 18.4847 0.589844 12.0474 0.589844C5.61007 0.589844 0.391602 5.80831 0.391602 12.2456C0.391602 18.6829 5.61007 23.9014 12.0474 23.9014Z" fill="url(#paint0_linear_788_63415)"></path><path d="M12.0474 23.3877C18.4847 23.3877 23.7031 18.1692 23.7031 11.7319C23.7031 5.29464 18.4847 0.0761719 12.0474 0.0761719C5.61007 0.0761719 0.391602 5.29464 0.391602 11.7319C0.391602 18.1692 5.61007 23.3877 12.0474 23.3877Z" fill="url(#paint1_linear_788_63415)"></path><path d="M12.0472 22.9988C18.2698 22.9988 23.3142 17.9544 23.3142 11.7318C23.3142 5.50924 18.2698 0.464844 12.0472 0.464844C5.82467 0.464844 0.780273 5.50924 0.780273 11.7318C0.780273 17.9544 5.82467 22.9988 12.0472 22.9988Z" fill="url(#paint2_linear_788_63415)"></path><path d="M12.0473 21.2362C17.2964 21.2362 21.5516 16.9809 21.5516 11.7319C21.5516 6.48276 17.2964 2.22754 12.0473 2.22754C6.79819 2.22754 2.54297 6.48276 2.54297 11.7319C2.54297 16.9809 6.79819 21.2362 12.0473 21.2362Z" fill="url(#paint3_linear_788_63415)"></path><path opacity="0.7" d="M19.5267 17.6006C20.5932 16.1026 21.219 14.2702 21.219 12.291C21.219 7.22763 17.1137 3.12227 12.0503 3.12227C6.98468 3.12227 2.87933 7.22763 2.87933 12.291C2.87933 14.2702 3.50518 16.1026 4.57163 17.6006C3.30184 15.9851 2.54492 13.9449 2.54492 11.7307C2.54492 6.48203 6.79941 2.22754 12.0503 2.22754C17.2989 2.22754 21.5534 6.48203 21.5534 11.7307C21.5534 13.9449 20.7965 15.9851 19.5267 17.6006Z" fill="url(#paint4_linear_788_63415)"></path><path d="M18.2996 7.03807C16.5843 5.80271 14.4108 5.06396 12.0482 5.06396C9.68567 5.06396 7.51217 5.80271 5.79688 7.03807C7.13403 5.19814 9.43358 3.98438 12.0482 3.98438C14.6629 3.98438 16.9625 5.19814 18.2996 7.03807Z" fill="url(#paint5_linear_788_63415)"></path><path d="M6.39551 20.6709C7.94593 21.5133 9.91052 22.0171 12.046 22.0171C14.1815 22.0171 16.1461 21.5133 17.6965 20.6709C16.4879 21.9256 14.4094 22.7533 12.046 22.7533C9.68265 22.7533 7.60413 21.9256 6.39551 20.6709Z" fill="url(#paint6_linear_788_63415)"></path><g filter="url(#filter0_i_788_63415)"><path fill-rule="evenodd" clip-rule="evenodd" d="M15.0325 11.081L17.73 10.2081C17.6231 9.93791 17.4846 9.68077 17.3145 9.4367C16.8569 8.77021 16.2202 8.25294 15.4046 7.88488C14.5988 7.50687 13.6787 7.31787 12.6441 7.31787C11.2415 7.31787 10.0578 7.62127 9.09284 8.22807C8.12793 8.83487 7.48632 9.66549 7.168 10.7199H5.88477V12.2121H6.9591V12.6H5.88477V14.0921H7.168C7.48632 15.1466 8.12296 15.9772 9.07792 16.584C10.0428 17.1908 11.2316 17.4942 12.6441 17.4942C13.6787 17.4942 14.5988 17.3102 15.4046 16.9421C16.2202 16.574 16.8569 16.0618 17.3145 15.4052C17.4846 15.1574 17.6231 14.898 17.73 14.6268L15.0325 13.7806C14.9277 14.0689 14.7433 14.312 14.4794 14.5099C14.0417 14.8382 13.43 15.0023 12.6441 15.0023C12.0174 15.0023 11.5001 14.9277 11.0923 14.7785C10.6844 14.6293 10.381 14.4005 10.1821 14.0921H14.0915V12.6H9.86875V12.2121H14.0915V10.7199H10.2119C10.6297 10.1131 11.4355 9.80973 12.6292 9.80973C13.3852 9.80973 13.992 9.98381 14.4496 10.332C14.7295 10.5388 14.9238 10.7885 15.0325 11.081Z" fill="#FD981C"></path></g></g><defs><filter id="filter0_i_788_63415" x="5.88477" y="7.31787" width="11.8447" height="10.1763" filterUnits="userSpaceOnUse" color-interpolation-filters="sRGB"><feFlood flood-opacity="0" result="BackgroundImageFix"></feFlood><feBlend mode="normal" in="SourceGraphic" in2="BackgroundImageFix" result="shape"></feBlend><feColorMatrix in="SourceAlpha" type="matrix" values="0 0 0 0 0 0 0 0 0 0 0 0 0 0 0 0 0 0 127 0" result="hardAlpha"></feColorMatrix><feOffset dy="0.42189"></feOffset><feComposite in2="hardAlpha" operator="arithmetic" k2="-1" k3="1"></feComposite><feColorMatrix type="matrix" values="0 0 0 0 0.868571 0 0 0 0 0.464762 0 0 0 0 0.0114286 0 0 0 1 0"></feColorMatrix><feBlend mode="normal" in2="shape" result="effect1_innerShadow_788_63415"></feBlend></filter><linearGradient id="paint0_linear_788_63415" x1="12.0474" y1="0.589331" x2="12.0474" y2="23.9014" gradientUnits="userSpaceOnUse"><stop stop-color="#FF7C00"></stop><stop offset="0.341442" stop-color="#F85C03"></stop><stop offset="0.64054" stop-color="#FF7C00"></stop><stop offset="1" stop-color="#F85A03"></stop></linearGradient><linearGradient id="paint1_linear_788_63415" x1="12.0474" y1="0.0761719" x2="12.0474" y2="23.3877" gradientUnits="userSpaceOnUse"><stop offset="4e-07" stop-color="#FDBC2E"></stop><stop offset="0.754955" stop-color="#FF7C00"></stop></linearGradient><linearGradient id="paint2_linear_788_63415" x1="12.0472" y1="0.464844" x2="12.0472" y2="22.9988" gradientUnits="userSpaceOnUse"><stop stop-color="#FAE28E"></stop><stop offset="0.751352" stop-color="#FAE25C"></stop></linearGradient><linearGradient id="paint3_linear_788_63415" x1="12.0473" y1="2.22754" x2="12.0473" y2="21.2362" gradientUnits="userSpaceOnUse"><stop stop-color="#FAE25C"></stop><stop offset="0.751352" stop-color="#FDBC2E"></stop></linearGradient><linearGradient id="paint4_linear_788_63415" x1="12.049" y1="2.22772" x2="12.049" y2="17.6004" gradientUnits="userSpaceOnUse"><stop stop-color="#FF7C00"></stop><stop offset="0.341442" stop-color="#F85C03"></stop><stop offset="0.64054" stop-color="#FF7C00"></stop><stop offset="1" stop-color="#F85A03"></stop></linearGradient><linearGradient id="paint5_linear_788_63415" x1="5.79666" y1="5.51147" x2="18.2997" y2="5.51147" gradientUnits="userSpaceOnUse"><stop stop-color="white" stop-opacity="0"></stop><stop offset="0.355856" stop-color="white"></stop><stop offset="0.640541" stop-color="white" stop-opacity="0.999"></stop><stop offset="1" stop-color="white" stop-opacity="0"></stop></linearGradient><linearGradient id="paint6_linear_788_63415" x1="17.6966" y1="21.7124" x2="6.3953" y2="21.7124" gradientUnits="userSpaceOnUse"><stop stop-color="white" stop-opacity="0"></stop><stop offset="0.323423" stop-color="white"></stop><stop offset="0.687387" stop-color="white" stop-opacity="0.999"></stop><stop offset="1" stop-color="white" stop-opacity="0"></stop></linearGradient><clipPath id="clip0_788_63415"><rect width="24" height="24" fill="white"></rect></clipPath></defs></svg>