<svg width="48" height="48" viewBox="0 0 48 48" fill="none" xmlns="http://www.w3.org/2000/svg"><path fill-rule="evenodd" clip-rule="evenodd" d="M47.9494 25.5712L46.4385 25.4735C46.47 24.9866 46.486 24.4953 46.486 24C46.486 23.5047 46.47 23.0134 46.4385 22.5265L47.9494 22.4288C47.983 22.9482 48 23.4721 48 24C48 24.5279 47.983 25.0518 47.9494 25.5712ZM47.5432 19.3161L46.0579 19.6099C45.8659 18.639 45.6113 17.6906 45.2986 16.7692L46.7323 16.2826C47.0662 17.2667 47.3381 18.2794 47.5432 19.3161ZM45.5298 13.3828L44.1724 14.0534C43.7362 13.1706 43.2437 12.3204 42.6995 11.5075L43.9576 10.6652C44.5384 11.5328 45.0641 12.4403 45.5298 13.3828ZM42.0445 8.17558L40.9066 9.17429C40.2589 8.43633 39.5637 7.74111 38.8257 7.09343L39.8244 5.95553C40.6117 6.64654 41.3535 7.38826 42.0445 8.17558ZM37.3348 4.04243L36.4925 5.30053C35.6796 4.7563 34.8294 4.26378 33.9466 3.8276L34.6172 2.47022C35.5597 2.93589 36.4672 3.46163 37.3348 4.04243ZM31.7174 1.26774L31.2308 2.70144C30.3094 2.38872 29.361 2.13413 28.3901 1.94205L28.6839 0.456816C29.7206 0.661911 30.7333 0.933776 31.7174 1.26774ZM25.5712 0.0506073L25.4735 1.56148C24.9866 1.53001 24.4953 1.51402 24 1.51402C23.5047 1.51402 23.0134 1.53001 22.5265 1.56148L22.4288 0.0506074C22.9482 0.0170425 23.4721 0 24 0C24.5279 0 25.0518 0.0170425 25.5712 0.0506073ZM19.3161 0.456817L19.6099 1.94205C18.639 2.13414 17.6906 2.38872 16.7692 2.70145L16.2826 1.26774C17.2667 0.933777 18.2794 0.661912 19.3161 0.456817ZM13.3828 2.47022L14.0534 3.8276C13.1706 4.26378 12.3204 4.7563 11.5075 5.30053L10.6652 4.04243C11.5328 3.46163 12.4403 2.93589 13.3828 2.47022ZM8.17558 5.95553L9.17429 7.09344C8.43633 7.74112 7.74111 8.43634 7.09343 9.17429L5.95552 8.17559C6.64654 7.38826 7.38826 6.64654 8.17558 5.95553ZM4.04243 10.6652L5.30053 11.5075C4.7563 12.3204 4.26378 13.1706 3.8276 14.0534L2.47022 13.3828C2.93589 12.4403 3.46163 11.5328 4.04243 10.6652ZM1.26774 16.2826L2.70144 16.7692C2.38872 17.6906 2.13413 18.639 1.94205 19.6099L0.456816 19.3161C0.661911 18.2794 0.933776 17.2667 1.26774 16.2826ZM0.0506073 22.4288C0.0170425 22.9482 0 23.4721 0 24C0 24.5279 0.0170425 25.0518 0.0506074 25.5712L1.56148 25.4735C1.53001 24.9866 1.51402 24.4953 1.51402 24C1.51402 23.5047 1.53001 23.0134 1.56148 22.5265L0.0506073 22.4288ZM0.456817 28.6839L1.94205 28.3901C2.13414 29.361 2.38872 30.3094 2.70145 31.2308L1.26774 31.7174C0.933777 30.7333 0.661913 29.7206 0.456817 28.6839ZM2.47022 34.6172L3.8276 33.9466C4.26378 34.8294 4.7563 35.6796 5.30053 36.4925L4.04243 37.3348C3.46163 36.4672 2.93589 35.5597 2.47022 34.6172ZM5.95553 39.8244L7.09344 38.8257C7.74112 39.5637 8.43634 40.2589 9.17429 40.9066L8.17559 42.0445C7.38826 41.3535 6.64654 40.6117 5.95553 39.8244ZM10.6652 43.9576L11.5075 42.6995C12.3204 43.2437 13.1706 43.7362 14.0534 44.1724L13.3828 45.5298C12.4403 45.0641 11.5328 44.5384 10.6652 43.9576ZM16.2826 46.7323L16.7692 45.2986C17.6906 45.6113 18.639 45.8659 19.6099 46.0579L19.3161 47.5432C18.2794 47.3381 17.2667 47.0662 16.2826 46.7323ZM22.4288 47.9494L22.5265 46.4385C23.0134 46.47 23.5047 46.486 24 46.486C24.4953 46.486 24.9866 46.47 25.4735 46.4385L25.5712 47.9494C25.0518 47.983 24.5279 48 24 48C23.4721 48 22.9482 47.983 22.4288 47.9494ZM28.6839 47.5432L28.3901 46.0579C29.361 45.8659 30.3094 45.6113 31.2308 45.2986L31.7174 46.7323C30.7333 47.0662 29.7206 47.3381 28.6839 47.5432ZM34.6172 45.5298L33.9466 44.1724C34.8294 43.7362 35.6796 43.2437 36.4925 42.6995L37.3348 43.9576C36.4672 44.5384 35.5597 45.0641 34.6172 45.5298ZM39.8244 42.0445L38.8257 40.9066C39.5637 40.2589 40.2589 39.5637 40.9066 38.8257L42.0445 39.8244C41.3535 40.6117 40.6117 41.3535 39.8244 42.0445ZM43.9576 37.3348L42.6995 36.4925C43.2437 35.6796 43.7362 34.8294 44.1724 33.9466L45.5298 34.6172C45.0641 35.5597 44.5384 36.4672 43.9576 37.3348ZM46.7323 31.7174L45.2986 31.2308C45.6113 30.3094 45.8659 29.361 46.0579 28.3901L47.5432 28.6839C47.3381 29.7206 47.0662 30.7333 46.7323 31.7174Z" fill="#545C78"></path><path d="M22.0144 26.5879C22.0144 25.5612 22.2197 24.7586 22.6304 24.1799C23.0597 23.6012 23.853 23.0226 25.0104 22.4439C26.0557 21.9212 26.737 21.5106 27.0544 21.2119C27.3904 20.9132 27.5584 20.5586 27.5584 20.1479V19.8959C27.5584 19.2612 27.2504 18.7666 26.6344 18.4119C26.0184 18.0572 25.141 17.8799 24.0024 17.8799C22.789 17.8799 21.837 18.1132 21.1464 18.5799C20.4557 19.0466 20.1104 19.6906 20.1104 20.5119V21.0719H16.1624V20.5119C16.1624 18.5892 16.853 17.0772 18.2344 15.9759C19.6344 14.8559 21.5477 14.2959 23.9744 14.2959C25.4304 14.2959 26.7464 14.5292 27.9224 14.9959C29.0984 15.4626 30.013 16.1066 30.6664 16.9279C31.3384 17.7492 31.6744 18.6732 31.6744 19.6999V20.0919C31.6744 20.9506 31.413 21.7159 30.8904 22.3879C30.3677 23.0412 29.5464 23.6572 28.4264 24.2359C27.6424 24.6279 27.073 24.9452 26.7184 25.1879C26.3637 25.4119 26.121 25.6266 25.9904 25.8319C25.8597 26.0372 25.7944 26.2892 25.7944 26.5879V27.0639H22.0144V26.5879ZM23.8904 33.3359C23.181 33.3359 22.6024 33.1212 22.1544 32.6919C21.7064 32.2439 21.4824 31.6746 21.4824 30.9839C21.4824 30.2932 21.7064 29.7332 22.1544 29.3039C22.6024 28.8559 23.181 28.6319 23.8904 28.6319C24.5997 28.6319 25.1784 28.8559 25.6264 29.3039C26.093 29.7332 26.3264 30.2932 26.3264 30.9839C26.3264 31.6746 26.093 32.2439 25.6264 32.6919C25.1784 33.1212 24.5997 33.3359 23.8904 33.3359Z" fill="#545C78"></path></svg>