<svg width="25" height="24" viewBox="0 0 25 24" fill="none" xmlns="http://www.w3.org/2000/svg"><g clip-path="url(#clip0_818_13083)"><path d="M12.5483 23.9004C18.9856 23.9004 24.2041 18.6819 24.2041 12.2446C24.2041 5.80733 18.9856 0.588867 12.5483 0.588867C6.11104 0.588867 0.892578 5.80733 0.892578 12.2446C0.892578 18.6819 6.11104 23.9004 12.5483 23.9004Z" fill="url(#paint0_linear_818_13083)"></path><path d="M12.5483 23.3869C18.9856 23.3869 24.2041 18.1684 24.2041 11.7311C24.2041 5.29378 18.9856 0.0753174 12.5483 0.0753174C6.11104 0.0753174 0.892578 5.29378 0.892578 11.7311C0.892578 18.1684 6.11104 23.3869 12.5483 23.3869Z" fill="url(#paint1_linear_818_13083)"></path><path d="M12.5492 22.998C18.7718 22.998 23.8162 17.9536 23.8162 11.7311C23.8162 5.5085 18.7718 0.464111 12.5492 0.464111C6.32662 0.464111 1.28223 5.5085 1.28223 11.7311C1.28223 17.9536 6.32662 22.998 12.5492 22.998Z" fill="url(#paint2_linear_818_13083)"></path><path d="M12.5473 21.2356C17.7964 21.2356 22.0516 16.9803 22.0516 11.7312C22.0516 6.48215 17.7964 2.22693 12.5473 2.22693C7.2982 2.22693 3.04297 6.48215 3.04297 11.7312C3.04297 16.9803 7.2982 21.2356 12.5473 21.2356Z" fill="url(#paint3_linear_818_13083)"></path><path opacity="0.7" d="M20.0267 17.6C21.0932 16.102 21.719 14.2696 21.719 12.2904C21.719 7.22702 17.6137 3.12166 12.5503 3.12166C7.48468 3.12166 3.37933 7.22702 3.37933 12.2904C3.37933 14.2696 4.00518 16.102 5.07163 17.6C3.80184 15.9845 3.04492 13.9443 3.04492 11.73C3.04492 6.48142 7.29941 2.22693 12.5503 2.22693C17.7989 2.22693 22.0534 6.48142 22.0534 11.73C22.0534 13.9443 21.2965 15.9845 20.0267 17.6Z" fill="url(#paint4_linear_818_13083)"></path><path d="M18.7996 7.0377C17.0843 5.80234 14.9108 5.0636 12.5482 5.0636C10.1857 5.0636 8.01217 5.80234 6.29688 7.0377C7.63403 5.19777 9.93358 3.98401 12.5482 3.98401C15.1629 3.98401 17.4625 5.19777 18.7996 7.0377Z" fill="url(#paint5_linear_818_13083)"></path><path d="M6.89648 20.6705C8.44691 21.513 10.4115 22.0167 12.547 22.0167C14.6825 22.0167 16.6471 21.513 18.1975 20.6705C16.9889 21.9252 14.9103 22.753 12.547 22.753C10.1836 22.753 8.1051 21.9252 6.89648 20.6705Z" fill="url(#paint6_linear_818_13083)"></path><g filter="url(#filter0_i_818_13083)"><path d="M14.1977 11.3458C16.3989 11.5893 17.4995 12.3783 17.4995 13.7126V13.8587C17.4995 14.6379 17.1927 15.2808 16.5791 15.7872C15.9655 16.2937 15.0938 16.6298 13.9639 16.7953V18.0226H10.779V16.7953C8.47059 16.4837 7.31641 15.4317 7.31641 13.6396V13.5373H10.1653V13.6396C10.1653 14.0194 10.3504 14.3019 10.7205 14.487C11.1004 14.6623 11.6896 14.7499 12.4883 14.7499C13.1896 14.7499 13.7009 14.7012 14.0224 14.6038C14.3535 14.4967 14.5191 14.336 14.5191 14.1217V14.0341C14.5191 13.8782 14.446 13.7613 14.2999 13.6834C14.1539 13.5958 13.9104 13.5324 13.5695 13.4935L10.6913 13.1867C8.53877 12.9529 7.46251 12.1348 7.46251 10.7322V10.5861C7.46251 9.86536 7.74983 9.27609 8.32449 8.81831C8.89915 8.36053 9.7173 8.0586 10.779 7.9125V6.67065H13.9639V7.92711C15.0451 8.09269 15.8632 8.42384 16.4184 8.92058C16.9833 9.40758 17.2658 10.0553 17.2658 10.8637V10.966H14.446V10.8637C14.446 10.5423 14.2756 10.3134 13.9347 10.177C13.5938 10.0309 13.0338 9.95789 12.2546 9.95789C11.602 9.95789 11.1247 10.0017 10.8228 10.0894C10.5306 10.1673 10.3845 10.2988 10.3845 10.4838V10.5715C10.3845 10.6981 10.4575 10.7955 10.6036 10.8637C10.7497 10.9319 11.0176 10.9855 11.4072 11.0244L14.1977 11.3458Z" fill="#FD981C"></path></g></g><defs><filter id="filter0_i_818_13083" x="7.31641" y="6.67065" width="10.1836" height="11.3519" filterUnits="userSpaceOnUse" color-interpolation-filters="sRGB"><feFlood flood-opacity="0" result="BackgroundImageFix"></feFlood><feBlend mode="normal" in="SourceGraphic" in2="BackgroundImageFix" result="shape"></feBlend><feColorMatrix in="SourceAlpha" type="matrix" values="0 0 0 0 0 0 0 0 0 0 0 0 0 0 0 0 0 0 127 0" result="hardAlpha"></feColorMatrix><feOffset dy="0.413086"></feOffset><feComposite in2="hardAlpha" operator="arithmetic" k2="-1" k3="1"></feComposite><feColorMatrix type="matrix" values="0 0 0 0 0.868571 0 0 0 0 0.464762 0 0 0 0 0.0114286 0 0 0 1 0"></feColorMatrix><feBlend mode="normal" in2="shape" result="effect1_innerShadow_818_13083"></feBlend></filter><linearGradient id="paint0_linear_818_13083" x1="12.5483" y1="0.588355" x2="12.5483" y2="23.9004" gradientUnits="userSpaceOnUse"><stop stop-color="#FF7C00"></stop><stop offset="0.341442" stop-color="#F85C03"></stop><stop offset="0.64054" stop-color="#FF7C00"></stop><stop offset="1" stop-color="#F85A03"></stop></linearGradient><linearGradient id="paint1_linear_818_13083" x1="12.5483" y1="0.0753174" x2="12.5483" y2="23.3869" gradientUnits="userSpaceOnUse"><stop offset="4e-07" stop-color="#FDBC2E"></stop><stop offset="0.754955" stop-color="#FF7C00"></stop></linearGradient><linearGradient id="paint2_linear_818_13083" x1="12.5492" y1="0.464111" x2="12.5492" y2="22.998" gradientUnits="userSpaceOnUse"><stop stop-color="#FAE28E"></stop><stop offset="0.751352" stop-color="#FAE25C"></stop></linearGradient><linearGradient id="paint3_linear_818_13083" x1="12.5473" y1="2.22693" x2="12.5473" y2="21.2356" gradientUnits="userSpaceOnUse"><stop stop-color="#FAE25C"></stop><stop offset="0.751352" stop-color="#FDBC2E"></stop></linearGradient><linearGradient id="paint4_linear_818_13083" x1="12.549" y1="2.22711" x2="12.549" y2="17.5998" gradientUnits="userSpaceOnUse"><stop stop-color="#FF7C00"></stop><stop offset="0.341442" stop-color="#F85C03"></stop><stop offset="0.64054" stop-color="#FF7C00"></stop><stop offset="1" stop-color="#F85A03"></stop></linearGradient><linearGradient id="paint5_linear_818_13083" x1="6.29666" y1="5.51111" x2="18.7997" y2="5.51111" gradientUnits="userSpaceOnUse"><stop stop-color="white" stop-opacity="0"></stop><stop offset="0.355856" stop-color="white"></stop><stop offset="0.640541" stop-color="white" stop-opacity="0.999"></stop><stop offset="1" stop-color="white" stop-opacity="0"></stop></linearGradient><linearGradient id="paint6_linear_818_13083" x1="18.1976" y1="21.712" x2="6.89627" y2="21.712" gradientUnits="userSpaceOnUse"><stop stop-color="white" stop-opacity="0"></stop><stop offset="0.323423" stop-color="white"></stop><stop offset="0.687387" stop-color="white" stop-opacity="0.999"></stop><stop offset="1" stop-color="white" stop-opacity="0"></stop></linearGradient><clipPath id="clip0_818_13083"><rect width="24" height="24" fill="white" transform="translate(0.5)"></rect></clipPath></defs></svg>